<svg xmlns="http://www.w3.org/2000/svg" xmlns:xlink="http://www.w3.org/1999/xlink" viewBox="0 0 738 348" width="738" height="348"><path d="M 222.000,256.000 C 219.500,258.500 218.322,262.488 217.000,261.000" stroke-width="4.629" stroke="black" fill="none" stroke-linecap="round"></path><path d="M 217.000,261.000 C 214.322,257.988 214.405,254.090 214.000,247.000" stroke-width="4.460" stroke="black" fill="none" stroke-linecap="round"></path><path d="M 214.000,247.000 C 213.405,236.590 213.774,236.422 215.000,226.000" stroke-width="2.815" stroke="black" fill="none" stroke-linecap="round"></path><path d="M 215.000,226.000 C 216.774,210.922 216.589,210.780 220.000,196.000" stroke-width="2.432" stroke="black" fill="none" stroke-linecap="round"></path><path d="M 220.000,196.000 C 222.589,184.780 223.120,184.864 227.000,174.000" stroke-width="2.340" stroke="black" fill="none" stroke-linecap="round"></path><path d="M 227.000,174.000 C 230.620,163.864 229.799,163.307 235.000,154.000" stroke-width="2.437" stroke="black" fill="none" stroke-linecap="round"></path><path d="M 235.000,154.000 C 239.299,146.307 240.439,146.951 246.000,140.000" stroke-width="2.646" stroke="black" fill="none" stroke-linecap="round"></path><path d="M 246.000,140.000 C 248.439,136.951 248.034,136.498 251.000,134.000" stroke-width="3.349" stroke="black" fill="none" stroke-linecap="round"></path><path d="M 251.000,134.000 C 257.534,128.498 257.896,128.844 265.000,124.000" stroke-width="2.942" stroke="black" fill="none" stroke-linecap="round"></path><path d="M 265.000,124.000 C 268.896,121.344 268.686,120.618 273.000,119.000" stroke-width="3.335" stroke="black" fill="none" stroke-linecap="round"></path><path d="M 273.000,119.000 C 276.686,117.618 277.179,117.454 281.000,118.000" stroke-width="3.658" stroke="black" fill="none" stroke-linecap="round"></path><path d="M 281.000,118.000 C 284.179,118.454 285.333,118.407 287.000,121.000" stroke-width="3.994" stroke="black" fill="none" stroke-linecap="round"></path><path d="M 287.000,121.000 C 289.833,125.407 289.533,126.402 290.000,132.000" stroke-width="3.469" stroke="black" fill="none" stroke-linecap="round"></path><path d="M 290.000,132.000 C 290.533,138.402 290.162,138.607 289.000,145.000" stroke-width="3.202" stroke="black" fill="none" stroke-linecap="round"></path><path d="M 289.000,145.000 C 287.162,155.107 286.864,155.106 284.000,165.000" stroke-width="2.642" stroke="black" fill="none" stroke-linecap="round"></path><path d="M 284.000,165.000 C 281.364,174.106 281.178,174.063 278.000,183.000" stroke-width="2.653" stroke="black" fill="none" stroke-linecap="round"></path><path d="M 278.000,183.000 C 273.178,196.563 273.148,196.557 268.000,210.000" stroke-width="2.167" stroke="black" fill="none" stroke-linecap="round"></path><path d="M 268.000,210.000 C 264.148,220.057 264.000,220.000 260.000,230.000" stroke-width="2.323" stroke="black" fill="none" stroke-linecap="round"></path><path d="M 260.000,230.000 C 254.000,245.000 254.400,245.180 248.000,260.000" stroke-width="1.981" stroke="black" fill="none" stroke-linecap="round"></path><path d="M 248.000,260.000 C 244.900,267.180 245.091,267.392 241.000,274.000" stroke-width="2.515" stroke="black" fill="none" stroke-linecap="round"></path><path d="M 241.000,274.000 C 238.591,277.892 237.336,281.260 235.000,281.000" stroke-width="3.213" stroke="black" fill="none" stroke-linecap="round"></path><path d="M 235.000,281.000 C 232.836,280.760 231.093,276.966 232.000,273.000" stroke-width="4.175" stroke="black" fill="none" stroke-linecap="round"></path><path d="M 232.000,273.000 C 235.093,259.466 236.503,258.993 243.000,246.000" stroke-width="3.024" stroke="black" fill="none" stroke-linecap="round"></path><path d="M 243.000,246.000 C 248.503,234.993 248.695,234.927 256.000,225.000" stroke-width="2.405" stroke="black" fill="none" stroke-linecap="round"></path><path d="M 256.000,225.000 C 268.195,208.427 268.399,208.468 282.000,193.000" stroke-width="1.926" stroke="black" fill="none" stroke-linecap="round"></path><path d="M 282.000,193.000 C 293.899,179.468 293.897,179.361 307.000,167.000" stroke-width="1.837" stroke="black" fill="none" stroke-linecap="round"></path><path d="M 307.000,167.000 C 320.397,154.361 320.398,154.212 335.000,143.000" stroke-width="1.793" stroke="black" fill="none" stroke-linecap="round"></path><path d="M 335.000,143.000 C 348.398,132.712 348.747,133.097 363.000,124.000" stroke-width="1.802" stroke="black" fill="none" stroke-linecap="round"></path><path d="M 363.000,124.000 C 372.247,118.097 372.518,118.531 382.000,113.000" stroke-width="2.166" stroke="black" fill="none" stroke-linecap="round"></path><path d="M 382.000,113.000 C 384.518,111.531 384.376,111.263 387.000,110.000" stroke-width="3.244" stroke="black" fill="none" stroke-linecap="round"></path><path d="M 387.000,110.000 C 397.876,104.763 397.968,104.929 409.000,100.000" stroke-width="2.539" stroke="black" fill="none" stroke-linecap="round"></path><path d="M 409.000,100.000 C 421.468,94.429 421.547,94.604 434.000,89.000" stroke-width="2.260" stroke="black" fill="none" stroke-linecap="round"></path><path d="M 434.000,89.000 C 441.547,85.604 441.466,85.424 449.000,82.000" stroke-width="2.643" stroke="black" fill="none" stroke-linecap="round"></path><path d="M 449.000,82.000 C 452.466,80.424 452.421,80.278 456.000,79.000" stroke-width="3.365" stroke="black" fill="none" stroke-linecap="round"></path><path d="M 456.000,79.000 C 459.421,77.778 459.471,77.882 463.000,77.000" stroke-width="3.747" stroke="black" fill="none" stroke-linecap="round"></path><path d="M 362.000,99.000 C 363.000,96.000 364.279,93.558 364.000,93.000" stroke-width="1.125" stroke="black" fill="none" stroke-linecap="round"></path><path d="M 364.000,93.000 C 363.779,92.558 362.189,94.820 361.000,97.000" stroke-width="2.346" stroke="black" fill="none" stroke-linecap="round"></path><path d="M 361.000,97.000 C 359.189,100.320 359.265,100.415 358.000,104.000" stroke-width="3.209" stroke="black" fill="none" stroke-linecap="round"></path><path d="M 358.000,104.000 C 356.265,108.915 356.871,109.136 355.000,114.000" stroke-width="3.343" stroke="black" fill="none" stroke-linecap="round"></path><path d="M 355.000,114.000 C 351.871,122.136 351.092,121.849 348.000,130.000" stroke-width="2.857" stroke="black" fill="none" stroke-linecap="round"></path><path d="M 348.000,130.000 C 345.592,136.349 345.789,136.441 344.000,143.000" stroke-width="3.039" stroke="black" fill="none" stroke-linecap="round"></path><path d="M 344.000,143.000 C 341.289,152.941 338.614,154.892 339.000,163.000" stroke-width="2.673" stroke="black" fill="none" stroke-linecap="round"></path><path d="M 339.000,163.000 C 339.114,165.392 342.552,165.224 345.000,164.000" stroke-width="3.862" stroke="black" fill="none" stroke-linecap="round"></path><path d="M 345.000,164.000 C 349.552,161.724 349.197,160.183 353.000,156.000" stroke-width="3.509" stroke="black" fill="none" stroke-linecap="round"></path><path d="M 353.000,156.000 C 359.197,149.183 358.929,148.938 365.000,142.000" stroke-width="2.830" stroke="black" fill="none" stroke-linecap="round"></path><path d="M 365.000,142.000 C 372.929,132.938 373.341,133.283 381.000,124.000" stroke-width="2.459" stroke="black" fill="none" stroke-linecap="round"></path><path d="M 381.000,124.000 C 389.841,113.283 389.199,112.756 398.000,102.000" stroke-width="2.280" stroke="black" fill="none" stroke-linecap="round"></path><path d="M 398.000,102.000 C 411.699,85.256 411.680,85.205 426.000,69.000" stroke-width="1.746" stroke="black" fill="none" stroke-linecap="round"></path><path d="M 426.000,69.000 C 430.680,63.705 431.000,64.000 436.000,59.000" stroke-width="2.461" stroke="black" fill="none" stroke-linecap="round"></path><path d="M 436.000,59.000 C 438.500,56.500 439.152,53.736 441.000,54.000" stroke-width="3.319" stroke="black" fill="none" stroke-linecap="round"></path><path d="M 441.000,54.000 C 442.652,54.236 443.370,57.040 443.000,60.000" stroke-width="4.354" stroke="black" fill="none" stroke-linecap="round"></path><path d="M 443.000,60.000 C 442.370,65.040 441.121,65.052 439.000,70.000" stroke-width="3.609" stroke="black" fill="none" stroke-linecap="round"></path><path d="M 439.000,70.000 C 436.621,75.552 436.889,75.703 434.000,81.000" stroke-width="3.378" stroke="black" fill="none" stroke-linecap="round"></path><path d="M 434.000,81.000 C 427.889,92.203 427.163,91.829 421.000,103.000" stroke-width="2.498" stroke="black" fill="none" stroke-linecap="round"></path><path d="M 421.000,103.000 C 419.163,106.329 419.834,106.665 418.000,110.000" stroke-width="3.292" stroke="black" fill="none" stroke-linecap="round"></path><path d="M 418.000,110.000 C 403.334,136.665 402.116,136.051 388.000,163.000" stroke-width="1.451" stroke="black" fill="none" stroke-linecap="round"></path><path d="M 388.000,163.000 C 380.116,178.051 380.950,178.478 374.000,194.000" stroke-width="1.678" stroke="black" fill="none" stroke-linecap="round"></path><path d="M 374.000,194.000 C 365.950,211.978 366.328,212.155 358.000,230.000" stroke-width="1.782" stroke="black" fill="none" stroke-linecap="round"></path><path d="M 358.000,230.000 C 352.328,242.155 352.224,242.118 346.000,254.000" stroke-width="2.213" stroke="black" fill="none" stroke-linecap="round"></path><path d="M 346.000,254.000 C 341.224,263.118 342.949,270.842 336.000,272.000" stroke-width="2.485" stroke="black" fill="none" stroke-linecap="round"></path><path d="M 336.000,272.000 C 327.949,273.342 317.319,267.791 316.000,259.000" stroke-width="3.618" stroke="black" fill="none" stroke-linecap="round"></path><path d="M 316.000,259.000 C 314.319,247.791 322.259,245.063 330.000,232.000" stroke-width="2.326" stroke="black" fill="none" stroke-linecap="round"></path><path d="M 330.000,232.000 C 338.259,218.063 338.031,217.751 348.000,205.000" stroke-width="2.515" stroke="black" fill="none" stroke-linecap="round"></path><path d="M 348.000,205.000 C 359.531,190.251 360.222,190.742 373.000,177.000" stroke-width="1.987" stroke="black" fill="none" stroke-linecap="round"></path><path d="M 373.000,177.000 C 386.722,162.242 386.029,161.457 401.000,148.000" stroke-width="2.026" stroke="black" fill="none" stroke-linecap="round"></path><path d="M 401.000,148.000 C 430.529,121.457 430.910,121.731 462.000,97.000" stroke-width="1.125" stroke="black" fill="none" stroke-linecap="round"></path><path d="M 462.000,97.000 C 474.910,86.731 475.544,87.561 489.000,78.000" stroke-width="1.542" stroke="black" fill="none" stroke-linecap="round"></path><path d="M 489.000,78.000 C 494.544,74.061 494.152,73.428 500.000,70.000" stroke-width="2.354" stroke="black" fill="none" stroke-linecap="round"></path><path d="M 500.000,70.000 C 508.652,64.928 508.936,65.364 518.000,61.000" stroke-width="2.505" stroke="black" fill="none" stroke-linecap="round"></path><path d="M 439.000,103.000 C 436.000,103.500 432.246,104.000 433.000,104.000" stroke-width="5.214" stroke="black" fill="none" stroke-linecap="round"></path><path d="M 433.000,104.000 C 434.246,104.000 438.626,104.944 443.000,103.000" stroke-width="4.984" stroke="black" fill="none" stroke-linecap="round"></path><path d="M 443.000,103.000 C 447.626,100.944 446.965,99.459 451.000,96.000" stroke-width="3.810" stroke="black" fill="none" stroke-linecap="round"></path><path d="M 451.000,96.000 C 457.465,90.459 457.609,90.624 464.000,85.000" stroke-width="2.979" stroke="black" fill="none" stroke-linecap="round"></path><path d="M 464.000,85.000 C 470.109,79.624 469.965,79.461 476.000,74.000" stroke-width="2.904" stroke="black" fill="none" stroke-linecap="round"></path><path d="M 476.000,74.000 C 480.465,69.961 480.590,70.095 485.000,66.000" stroke-width="3.166" stroke="black" fill="none" stroke-linecap="round"></path><path d="M 485.000,66.000 C 487.590,63.595 490.997,60.336 490.000,61.000" stroke-width="3.690" stroke="black" fill="none" stroke-linecap="round"></path><path d="M 490.000,61.000 C 487.997,62.336 484.149,65.137 479.000,70.000" stroke-width="4.135" stroke="black" fill="none" stroke-linecap="round"></path><path d="M 479.000,70.000 C 475.149,73.637 472.664,74.681 472.000,78.000" stroke-width="3.639" stroke="black" fill="none" stroke-linecap="round"></path><path d="M 472.000,78.000 C 471.664,79.681 474.673,80.665 477.000,80.000" stroke-width="4.402" stroke="black" fill="none" stroke-linecap="round"></path><path d="M 477.000,80.000 C 481.673,78.665 481.532,77.047 486.000,74.000" stroke-width="3.679" stroke="black" fill="none" stroke-linecap="round"></path><path d="M 486.000,74.000 C 492.532,69.547 492.609,69.648 499.000,65.000" stroke-width="3.108" stroke="black" fill="none" stroke-linecap="round"></path><path d="M 499.000,65.000 C 503.609,61.648 503.398,61.363 508.000,58.000" stroke-width="3.285" stroke="black" fill="none" stroke-linecap="round"></path><path d="M 508.000,58.000 C 516.398,51.863 516.831,52.393 525.000,46.000" stroke-width="3.399" stroke="black" fill="none" stroke-linecap="round"></path><path d="M 525.000,46.000 C 528.331,43.393 532.914,38.649 531.000,40.000" stroke-width="4.070" stroke="black" fill="none" stroke-linecap="round"></path><path d="M 232.000,226.000 C 230.500,228.500 228.250,231.900 229.000,231.000" stroke-width="4.886" stroke="black" fill="none" stroke-linecap="round"></path><path d="M 229.000,231.000 C 230.750,228.900 233.229,225.657 237.000,220.000" stroke-width="4.523" stroke="black" fill="none" stroke-linecap="round"></path><path d="M 237.000,220.000 C 246.229,206.157 246.330,206.188 255.000,192.000" stroke-width="3.199" stroke="black" fill="none" stroke-linecap="round"></path><path d="M 255.000,192.000 C 257.330,188.188 256.389,187.560 259.000,184.000" stroke-width="3.525" stroke="black" fill="none" stroke-linecap="round"></path><path d="M 259.000,184.000 C 261.889,180.060 263.675,177.664 266.000,177.000" stroke-width="3.490" stroke="black" fill="none" stroke-linecap="round"></path><path d="M 266.000,177.000 C 267.175,176.664 266.309,179.528 266.000,182.000" stroke-width="4.487" stroke="black" fill="none" stroke-linecap="round"></path><path d="M 266.000,182.000 C 265.309,187.528 264.651,187.469 264.000,193.000" stroke-width="4.283" stroke="black" fill="none" stroke-linecap="round"></path><path d="M 264.000,193.000 C 263.651,195.969 262.872,200.354 264.000,199.000" stroke-width="4.195" stroke="black" fill="none" stroke-linecap="round"></path><path d="M 264.000,199.000 C 267.872,194.354 268.924,189.957 274.000,181.000" stroke-width="4.093" stroke="black" fill="none" stroke-linecap="round"></path><path d="M 274.000,181.000 C 277.424,174.957 282.436,166.415 281.000,169.000" stroke-width="3.270" stroke="black" fill="none" stroke-linecap="round"></path><circle r="1.5" cx="237" cy="191" fill="black"></circle></svg>